<?xml version="1.0" standalone="no"?><!DOCTYPE svg PUBLIC "-//W3C//DTD SVG 1.1//EN" "http://www.w3.org/Graphics/SVG/1.1/DTD/svg11.dtd"><svg t="1652337831844" class="icon" viewBox="0 0 1024 1024" version="1.1" xmlns="http://www.w3.org/2000/svg" p-id="38576" xmlns:xlink="http://www.w3.org/1999/xlink" width="200" height="200"><defs><style type="text/css"></style></defs><path d="M939.904 721.05984a218.84416 218.84416 0 1 0-218.84416 218.84416 218.84416 218.84416 0 0 0 218.84416-218.84416z" fill="#F4CA1C" p-id="38577"></path><path d="M517.12 962.56a445.44 445.44 0 1 1 445.44-445.44 445.952 445.952 0 0 1-445.44 445.44z m0-819.03104A373.59616 373.59616 0 1 0 890.71616 517.12 374.016 374.016 0 0 0 517.12 143.52896z m139.50976 554.40384a35.80416 35.80416 0 0 1-26.04544-11.17696l-126.49472-133.12a76.32896 76.32896 0 0 1-21.0944-52.80768v-172.9024a35.92192 35.92192 0 1 1 71.84384 0v172.92288a4.81792 4.81792 0 0 0 1.32096 3.31776l126.49984 133.12a35.92192 35.92192 0 0 1-26.03008 60.64128z" fill="#595BB3" p-id="38578"></path></svg>